# xmcd
#
# Track frame offsets: 
#        150
#        12862
#        24812
#        37776
#        51147
#        64736
#        79233
#        93713
#        106753
#        119205
#        130871
#        140759
#        150442
#        165104
#        175055
#        186796
#        199248
#        216941
#
# Disc length: 3045 seconds
#
# Revision: 0
# Processed by: cddbd v1.5.2PL0 Copyright (c) Steve Scherf et al.
# Submitted via: ExactAudioCopy v1.0b3
#
DISCID=eb0be312
DTITLE=Various Artist - Country Love Songs
DYEAR=2008
DGENRE=Country
TTITLE0=Charlie Rich - The Most Beautiful Girl
TTITLE1=Skeeter Davis - The End Of The World
TTITLE2=Faron Young - It's Four In The Morning
TTITLE3=Lynn Anderson - Rose Garden
TTITLE4=Johnny Carver - Tie A Yellow Ribbon ('Round The Old Oak Tree)
TTITLE5=Don Gibson - Sweet Dreams
TTITLE6=Deborah Allen - I Will Always Love You
TTITLE7=Lucy J Dalton - Dream Baby (How Long Must I Dream)
TTITLE8=Wanda Jackson - Crazy
TTITLE9=Don Gibson - I Can't Stop Loving You
TTITLE10=Hank Locklin - Please Help Me I'm Falling
TTITLE11=Sandy Posey - Born A Woman
TTITLE12=Johnny Paycheck - A Good Year For The Roses
TTITLE13=Porter Wagoner - Green Green Grass Of Home
TTITLE14=Jack Green - There Goes My Everything
TTITLE15=Stonewall Jackson - Me And You And A Dog Named Boo
TTITLE16=Lyn Anderson - Close To You
TTITLE17=Sammi Smith - Help Me Make It Through The Night
EXTD=
EXTT0=
EXTT1=
EXTT2=
EXTT3=
EXTT4=
EXTT5=
EXTT6=
EXTT7=
EXTT8=
EXTT9=
EXTT10=
EXTT11=
EXTT12=
EXTT13=
EXTT14=
EXTT15=
EXTT16=
EXTT17=
PLAYORDER=
